<?xml version="1.0" encoding="UTF-8" standalone="no"?>
<svg width="60px" height="60px" viewBox="0 0 60 60" version="1.1" xmlns="http://www.w3.org/2000/svg" xmlns:xlink="http://www.w3.org/1999/xlink" xmlns:sketch="http://www.bohemiancoding.com/sketch/ns">
    <!-- Generator: Sketch 3.3.3 (12081) - http://www.bohemiancoding.com/sketch -->
    <title>Cycle</title>
    <desc>Created with Sketch.</desc>
    <defs></defs>
    <g id="outlined" stroke="none" stroke-width="1" fill="none" fill-rule="evenodd" sketch:type="MSPage">
        <g id="Activities_sliced" sketch:type="MSLayerGroup" transform="translate(-240.000000, 0.000000)"></g>
        <g id="Imported-Layers" sketch:type="MSLayerGroup" transform="translate(-239.000000, 1.000000)" fill="#535353">
            <path d="M252,54 C245.935,54 241,49.065 241,43 C241,36.935 245.935,32 252,32 C258.065,32 263,36.935 263,43 C263,49.065 258.065,54 252,54 L252,54 Z M252,34 C247.038,34 243,38.038 243,43 C243,47.962 247.038,52 252,52 C256.962,52 261,47.962 261,43 C261,38.038 256.962,34 252,34 L252,34 Z" id="Fill-21" sketch:type="MSShapeGroup"></path>
            <path d="M287,54 C280.935,54 276,49.065 276,43 C276,36.935 280.935,32 287,32 C293.065,32 298,36.935 298,43 C298,49.065 293.065,54 287,54 L287,54 Z M287,34 C282.038,34 278,38.038 278,43 C278,47.962 282.038,52 287,52 C291.962,52 296,47.962 296,43 C296,38.038 291.962,34 287,34 L287,34 Z" id="Fill-22" sketch:type="MSShapeGroup"></path>
            <path d="M276.075,32.939 C275.819,32.939 275.563,32.842 275.368,32.646 C273.029,30.307 273.029,26.5 275.368,24.161 C277.707,21.822 281.514,21.822 283.853,24.161 C284.244,24.551 284.244,25.185 283.853,25.575 C283.463,25.966 282.83,25.966 282.44,25.575 C280.88,24.017 278.342,24.017 276.782,25.575 C275.223,27.135 275.223,29.673 276.782,31.232 C277.173,31.623 277.173,32.256 276.782,32.646 C276.587,32.842 276.331,32.939 276.075,32.939" id="Fill-23" sketch:type="MSShapeGroup"></path>
            <path d="M287.411,44.688 L274.661,31.939 L276.075,30.525 L288.825,43.274 L287.411,44.688" id="Fill-24" sketch:type="MSShapeGroup"></path>
            <path d="M267.099,44.072 L253.126,44.072 C252.805,44.072 252.503,43.917 252.315,43.657 C252.127,43.396 252.076,43.061 252.178,42.756 L256.865,28.657 L252.409,24.073 C252.024,23.677 252.033,23.044 252.429,22.659 C252.826,22.275 253.458,22.283 253.844,22.679 L258.723,27.698 C258.983,27.966 259.073,28.356 258.955,28.711 L254.513,42.072 L266.552,42.072 L272.977,32.033 L261.012,32.033 C260.459,32.033 260.012,31.585 260.012,31.033 C260.012,30.48 260.459,30.033 261.012,30.033 L274.804,30.033 C275.169,30.033 275.505,30.232 275.681,30.553 C275.856,30.873 275.843,31.264 275.646,31.572 L267.941,43.611 C267.758,43.898 267.44,44.072 267.099,44.072" id="Fill-25" sketch:type="MSShapeGroup"></path>
        </g>
    </g>
</svg>
