<?xml version="1.0" encoding="UTF-8" standalone="no"?>
<svg width="60px" height="60px" viewBox="0 0 60 60" version="1.1" xmlns="http://www.w3.org/2000/svg" xmlns:xlink="http://www.w3.org/1999/xlink" xmlns:sketch="http://www.bohemiancoding.com/sketch/ns">
    <!-- Generator: Sketch 3.3.3 (12081) - http://www.bohemiancoding.com/sketch -->
    <title>Doubleheart</title>
    <desc>Created with Sketch.</desc>
    <defs></defs>
    <g id="outlined" stroke="none" stroke-width="1" fill="none" fill-rule="evenodd" sketch:type="MSPage">
        <g id="Medical_sliced" sketch:type="MSLayerGroup" transform="translate(-480.000000, -600.000000)"></g>
        <g id="Imported-Layers" sketch:type="MSLayerGroup" transform="translate(-479.000000, -597.000000)" fill="#535353">
            <path d="M508.666,651.386 L508.065,650.936 C507.112,650.22 484.69,633.323 482.313,625.45 C481.281,622.029 482.114,618.258 484.66,614.831 C487.742,610.681 492.634,608 497.123,608 C501.638,608 505.857,610.035 508.666,613.505 C511.477,610.035 515.696,608 520.21,608 C524.699,608 529.591,610.681 532.673,614.831 C535.219,618.258 536.052,622.029 535.019,625.45 C532.643,633.323 510.22,650.22 509.267,650.936 L508.666,651.386 L508.666,651.386 Z M497.123,610 C493.305,610 488.941,612.42 486.266,616.024 C484.106,618.93 483.383,622.072 484.227,624.872 C486.216,631.456 505.042,646.107 508.666,648.88 C512.29,646.106 531.118,631.454 533.104,624.872 C533.949,622.072 533.226,618.93 531.067,616.024 C528.392,612.421 524.028,610 520.21,610 C515.896,610 511.892,612.148 509.499,615.746 L508.666,616.999 L507.833,615.746 C505.441,612.148 501.437,610 497.123,610 L497.123,610 Z" id="Fill-321" sketch:type="MSShapeGroup"></path>
            <path d="M508.666,638.442 L508.065,637.992 C506.593,636.887 499.199,631.221 498.295,628.223 C497.853,626.759 498.197,625.163 499.263,623.729 C500.519,622.036 502.531,620.943 504.387,620.943 C506.006,620.943 507.532,621.576 508.666,622.681 C509.8,621.576 511.326,620.943 512.945,620.943 C514.802,620.943 516.813,622.037 518.07,623.729 C519.136,625.163 519.479,626.759 519.038,628.223 C518.133,631.221 510.739,636.887 509.267,637.992 L508.666,638.442 L508.666,638.442 Z M504.387,622.943 C503.161,622.943 501.747,623.738 500.868,624.921 C500.475,625.45 499.866,626.508 500.209,627.646 C500.73,629.372 505.438,633.453 508.666,635.936 C511.894,633.453 516.602,629.371 517.124,627.645 C517.467,626.508 516.858,625.451 516.465,624.921 C515.586,623.738 514.171,622.943 512.945,622.943 C511.557,622.943 510.269,623.634 509.499,624.792 L508.666,626.045 L507.833,624.792 C507.063,623.634 505.775,622.943 504.387,622.943 L504.387,622.943 Z" id="Fill-322" sketch:type="MSShapeGroup"></path>
        </g>
    </g>
</svg>
