<?xml version="1.0" encoding="UTF-8" standalone="no"?>
<svg width="60px" height="60px" viewBox="0 0 60 60" version="1.1" xmlns="http://www.w3.org/2000/svg" xmlns:xlink="http://www.w3.org/1999/xlink" xmlns:sketch="http://www.bohemiancoding.com/sketch/ns">
    <!-- Generator: Sketch 3.3.3 (12081) - http://www.bohemiancoding.com/sketch -->
    <title>Skelet</title>
    <desc>Created with Sketch.</desc>
    <defs></defs>
    <g id="outlined" stroke="none" stroke-width="1" fill="none" fill-rule="evenodd" sketch:type="MSPage">
        <g id="Science_sliced" sketch:type="MSLayerGroup" transform="translate(-840.000000, -480.000000)"></g>
        <g id="Imported-Layers" sketch:type="MSLayerGroup" transform="translate(-839.000000, -479.000000)" fill="#535353">
            <path d="M881,536 L860,536 C859.447,536 859,535.552 859,535 L859,525.392 C851.081,521.383 846,513.252 846,504.5 C846,491.542 856.767,481 870,481 C883.233,481 894,491.542 894,504.5 C894,512.913 889.418,520.657 882,524.856 L882,535 C882,535.552 881.553,536 881,536 L881,536 Z M861,534 L880,534 L880,524.265 C880,523.896 880.203,523.556 880.529,523.382 C887.604,519.606 892,512.371 892,504.5 C892,492.645 882.131,483 870,483 C857.869,483 848,492.645 848,504.5 C848,512.692 852.878,520.292 860.428,523.864 C860.777,524.029 861,524.381 861,524.768 L861,534 L861,534 Z" id="Fill-287" sketch:type="MSShapeGroup"></path>
            <path d="M858.327,513.243 L858.326,513.243 C854.892,513.243 853.846,511.574 853.574,510.173 C853.251,508.512 853.85,506.223 855.177,504.05 C855.829,502.979 857.606,500.44 859.994,499.977 C860.346,499.908 860.71,499.873 861.074,499.873 C864.261,499.873 867.357,502.471 867.977,505.665 C868.309,507.363 867.869,509.029 866.741,510.354 C865.719,511.555 864.203,512.401 862.474,512.737 C861.124,513 859.688,513.243 858.327,513.243 L858.327,513.243 Z M861.074,501.873 C860.837,501.873 860.602,501.896 860.375,501.939 C859.295,502.15 857.924,503.387 856.883,505.092 C855.842,506.797 855.313,508.643 855.537,509.792 C855.622,510.226 855.819,511.243 858.326,511.243 C859.521,511.243 860.901,511.006 862.093,510.774 C863.378,510.524 864.488,509.915 865.218,509.057 C865.731,508.454 866.286,507.442 866.015,506.046 C865.583,503.823 863.274,501.873 861.074,501.873 L861.074,501.873 Z" id="Fill-288" sketch:type="MSShapeGroup"></path>
            <path d="M881.674,513.243 C880.312,513.243 878.876,513 877.526,512.737 C875.797,512.401 874.281,511.555 873.259,510.354 C872.131,509.029 871.691,507.363 872.023,505.664 C872.643,502.471 875.739,499.873 878.926,499.873 C879.29,499.873 879.654,499.908 880.006,499.977 C882.394,500.44 884.171,502.979 884.823,504.05 C886.15,506.223 886.749,508.512 886.426,510.174 C886.154,511.574 885.108,513.243 881.674,513.243 L881.674,513.243 Z M878.926,501.873 C876.726,501.873 874.417,503.823 873.985,506.045 C873.714,507.442 874.269,508.454 874.782,509.057 C875.512,509.915 876.622,510.524 877.907,510.774 C879.099,511.006 880.478,511.243 881.674,511.243 C884.181,511.243 884.378,510.226 884.463,509.792 C884.687,508.643 884.158,506.797 883.117,505.092 C882.076,503.387 880.705,502.15 879.625,501.939 C879.397,501.896 879.163,501.873 878.926,501.873 L878.926,501.873 Z" id="Fill-289" sketch:type="MSShapeGroup"></path>
            <path d="M865,533 C864.447,533 864,532.552 864,532 L864,527 C864,526.448 864.447,526 865,526 C865.553,526 866,526.448 866,527 L866,532 C866,532.552 865.553,533 865,533" id="Fill-290" sketch:type="MSShapeGroup"></path>
            <path d="M875,533 C874.447,533 874,532.552 874,532 L874,527 C874,526.448 874.447,526 875,526 C875.553,526 876,526.448 876,527 L876,532 C876,532.552 875.553,533 875,533" id="Fill-291" sketch:type="MSShapeGroup"></path>
            <path d="M870,533 C869.447,533 869,532.552 869,532 L869,527 C869,526.448 869.447,526 870,526 C870.553,526 871,526.448 871,527 L871,532 C871,532.552 870.553,533 870,533" id="Fill-292" sketch:type="MSShapeGroup"></path>
            <path d="M867,514 L869,514 L869,518 L867,518 L867,514 Z" id="Fill-293" sketch:type="MSShapeGroup"></path>
            <path d="M871,514 L873,514 L873,518 L871,518 L871,514 Z" id="Fill-294" sketch:type="MSShapeGroup"></path>
        </g>
    </g>
</svg>
