<?xml version="1.0" encoding="UTF-8" standalone="no"?>
<svg width="60px" height="60px" viewBox="0 0 60 60" version="1.1" xmlns="http://www.w3.org/2000/svg" xmlns:xlink="http://www.w3.org/1999/xlink" xmlns:sketch="http://www.bohemiancoding.com/sketch/ns">
    <!-- Generator: Sketch 3.3.3 (12081) - http://www.bohemiancoding.com/sketch -->
    <title>Sun</title>
    <desc>Created with Sketch.</desc>
    <defs></defs>
    <g id="colored" stroke="none" stroke-width="1" fill="none" fill-rule="evenodd" sketch:type="MSPage">
        <g id="Weather_sliced" sketch:type="MSLayerGroup" transform="translate(0.000000, -120.000000)"></g>
        <g id="Imported-Layers" sketch:type="MSLayerGroup" transform="translate(0.000000, -117.000000)" fill="#535353">
            <path d="M47.541,165.841 C47.285,165.841 47.029,165.743 46.834,165.548 L41.715,160.429 C41.325,160.039 41.325,159.406 41.715,159.015 C42.106,158.625 42.739,158.625 43.129,159.015 L48.248,164.134 C48.639,164.524 48.639,165.157 48.248,165.548 C48.053,165.743 47.797,165.841 47.541,165.841 L47.541,165.841 Z M12.137,165.841 C11.881,165.841 11.625,165.743 11.43,165.548 C11.04,165.157 11.04,164.524 11.43,164.134 L16.549,159.015 C16.94,158.625 17.572,158.625 17.963,159.015 C18.353,159.406 18.353,160.039 17.963,160.429 L12.844,165.548 C12.649,165.743 12.393,165.841 12.137,165.841 L12.137,165.841 Z M42.422,135.555 C42.167,135.555 41.911,135.458 41.715,135.262 C41.325,134.872 41.325,134.239 41.715,133.848 L46.834,128.73 C47.225,128.339 47.857,128.339 48.248,128.73 C48.639,129.121 48.639,129.754 48.248,130.144 L43.129,135.262 C42.934,135.458 42.678,135.555 42.422,135.555 L42.422,135.555 Z M17.256,135.555 C17,135.555 16.744,135.458 16.549,135.262 L11.43,130.144 C11.04,129.754 11.04,129.121 11.43,128.73 C11.821,128.339 12.454,128.339 12.844,128.73 L17.963,133.848 C18.353,134.239 18.353,134.872 17.963,135.262 C17.768,135.458 17.512,135.555 17.256,135.555 L17.256,135.555 Z" id="Fill-70" sketch:type="MSShapeGroup"></path>
            <path d="M30,162 C21.729,162 15,155.271 15,147 C15,138.729 21.729,132 30,132 C38.271,132 45,138.729 45,147 C45,155.271 38.271,162 30,162 L30,162 Z M30,134 C22.831,134 17,139.832 17,147 C17,154.168 22.831,160 30,160 C37.169,160 43,154.168 43,147 C43,139.832 37.169,134 30,134 L30,134 Z" id="Fill-71" sketch:type="MSShapeGroup"></path>
            <path d="M30,176.021 C29.448,176.021 29,175.573 29,175.021 L29,164.542 C29,163.99 29.448,163.542 30,163.542 C30.552,163.542 31,163.99 31,164.542 L31,175.021 C31,175.573 30.552,176.021 30,176.021 L30,176.021 Z M58,148.021 L47.521,148.021 C46.969,148.021 46.521,147.573 46.521,147.021 C46.521,146.469 46.969,146.021 47.521,146.021 L58,146.021 C58.552,146.021 59,146.469 59,147.021 C59,147.573 58.552,148.021 58,148.021 L58,148.021 Z M12.479,148.021 L2,148.021 C1.448,148.021 1,147.573 1,147.021 C1,146.469 1.448,146.021 2,146.021 L12.479,146.021 C13.031,146.021 13.479,146.469 13.479,147.021 C13.479,147.573 13.031,148.021 12.479,148.021 L12.479,148.021 Z M30,130.5 C29.448,130.5 29,130.052 29,129.5 L29,119.021 C29,118.469 29.448,118.021 30,118.021 C30.552,118.021 31,118.469 31,119.021 L31,129.5 C31,130.052 30.552,130.5 30,130.5 L30,130.5 Z" id="Fill-72" sketch:type="MSShapeGroup"></path>
        </g>
    </g>
</svg>
